<?xml version="1.0" encoding="UTF-8"?>
<svg id="Layer_2" xmlns="http://www.w3.org/2000/svg" viewBox="0 0 1920 149">
  <defs>
    <style>
      .cls-1 {
        fill: #222327;
        font-family: Montserrat-Bold, Montserrat;
        font-size: 52px;
        font-weight: 700;
      }

      .cls-2 {
        fill: #fff;
      }

      .cls-3 {
        letter-spacing: 0em;
      }
    </style>
  </defs>
  <g id="baner">
    <rect class="cls-2" x="0" width="1920" height="149"/>
    <g>
      <path d="M149,149H0C0,99.33,0,49.67,0,0c49.67,0,99.33,0,149,0v149ZM74.64,6.12c-13.53,0-27.06,0-40.6,0-3.12,0-6.2.36-9.18,1.31-7.22,2.29-12.5,6.84-15.78,13.68-2,4.16-2.63,8.58-2.63,13.15,0,26.75-.02,53.5,0,80.25,0,2.22.14,4.48.55,6.65,1.56,8.38,6.15,14.59,13.75,18.48,4.25,2.18,8.83,2.97,13.58,2.97,26.87,0,53.74.02,80.61-.03,2.31,0,4.66-.26,6.92-.74,6.69-1.42,12.14-4.85,16.07-10.53,3.35-4.84,4.66-10.28,4.67-16.09,0-7.54,0-15.08,0-22.63,0-19.59,0-39.19,0-58.78,0-2.43-.18-4.85-.75-7.22-1.99-8.24-6.75-14.27-14.42-17.94-3.97-1.9-8.21-2.55-12.58-2.55-13.41.01-26.82,0-40.23,0Z"/>
      <path class="cls-2" d="M74.64,6.12c13.41,0,26.82,0,40.23,0,4.37,0,8.61.65,12.58,2.55,7.66,3.67,12.43,9.7,14.42,17.94.57,2.37.75,4.78.75,7.22,0,19.59,0,39.19,0,58.78,0,7.54,0,15.08,0,22.63,0,5.81-1.32,11.25-4.67,16.09-3.93,5.67-9.38,9.11-16.07,10.53-2.26.48-4.61.73-6.92.74-26.87.05-53.74.02-80.61.03-4.75,0-9.33-.8-13.58-2.97-7.6-3.89-12.2-10.1-13.75-18.48-.4-2.18-.54-4.43-.55-6.65-.03-26.75,0-53.5,0-80.25,0-4.56.63-8.99,2.63-13.15,3.28-6.85,8.56-11.39,15.78-13.68,2.98-.95,6.05-1.31,9.18-1.31,13.53,0,27.06,0,40.6,0ZM74.49,135.42c10.38,0,20.76.02,31.14-.01,3.8-.01,7.62.05,11.41-.29,4.64-.41,8.73-2.36,12.13-5.59,4.54-4.31,6.54-9.72,6.54-15.88.03-24.88.01-49.76,0-74.64,0-1.89.04-3.79-.13-5.67-.63-6.8-3.75-12.2-9.38-16.08-3.82-2.63-8.15-3.66-12.73-3.67-23.28-.02-46.56-.01-69.84,0-3.47,0-6.95-.11-10.4.15-6.86.52-12.34,3.62-16.2,9.38-2.54,3.8-3.67,8.04-3.67,12.59,0,26.02,0,52.04.01,78.06,0,1.3.12,2.62.34,3.91,1.17,6.76,4.76,11.81,10.79,15.11,3.54,1.94,7.37,2.63,11.35,2.63,12.88,0,25.75,0,38.63,0Z"/>
      <path d="M74.49,135.42c-12.88,0-25.75,0-38.63,0-3.98,0-7.82-.7-11.35-2.63-6.03-3.3-9.62-8.36-10.79-15.11-.22-1.28-.34-2.6-.34-3.91-.02-26.02-.01-52.04-.01-78.06,0-4.55,1.12-8.79,3.67-12.59,3.86-5.76,9.34-8.86,16.2-9.38,3.45-.26,6.93-.15,10.4-.15,23.28,0,46.56-.01,69.84,0,4.58,0,8.91,1.04,12.73,3.67,5.63,3.88,8.75,9.28,9.38,16.08.17,1.88.13,3.78.13,5.67,0,24.88.02,49.76,0,74.64,0,6.16-2.01,11.57-6.54,15.88-3.4,3.23-7.48,5.18-12.13,5.59-3.78.34-7.6.28-11.41.29-10.38.03-20.76.01-31.14.01ZM83.88,97.56c-.1.23-.13.32-.18.39-1.68,2.48-2.76,5.21-3.34,8.14-.21,1.06-.18,1.02.74,1.5.93.49,1.82,1.06,2.77,1.63.17-.44.3-.92.53-1.33.57-1,1.1-2.05,1.83-2.94.36-.44.59-.79.64-1.34.22-2.22,2.21-3.8,4.43-3.54.41.05.64-.03.77-.43.38-1.2.84-2.38,1.16-3.59.91-3.5-.51-6.43-2.39-9.42-.19.78-.34,1.38-.53,2.19-.27-.54-.48-.89-.62-1.26-.48-1.2-.58-2.46-.42-3.72.15-1.19-.02-2.32-.39-3.43-.52-1.55-1.07-3.09-1.65-4.79-1.31,1.53-2.76,2.48-4.6,2.79.49-.78,1-1.48,1.39-2.25.39-.78.65-1.61.97-2.43-1.79.46-3.4.85-5.11.73-.19-.01-.48.26-.6.47-2.01,3.61-7.53,3.34-9.26-.09-.08-.16-.31-.37-.46-.36-1.75.07-3.46-.06-5.17-.72.26.86.53,1.69.92,2.45.39.76.9,1.46,1.36,2.19-1.27-.01-2.45-.69-4.54-2.63-1.03,2.65-2.28,5.18-1.99,8.11.05.46.09.92.06,1.38-.06,1.18-.29,2.32-1.07,3.43-.21-.71-.38-1.29-.6-2.02-2.05,3.15-3.35,6.32-2.26,9.95.7,2.34,1.65,4.6,2.46,6.9.48,1.36.89,2.75,1.34,4.18,1.39-.74,2.8-1.29,4.39-1.03,1.66.28,2.77,1.28,3.52,2.72,1.66-.94,1.44-.47,1.24-2.16-.39-3.31-1.64-6.31-3.43-9.1-.09-.14-.17-.3-.25-.45.06-.06.13-.12.19-.19.78.64,1.56,1.27,2.4,1.96.13-.77.26-1.49.38-2.22.06-.01.12-.03.17-.04.2.55.45,1.1.58,1.67.33,1.42.54,2.86.91,4.26.39,1.46.92,2.88,1.4,4.36,2.02-.8,4-1.01,6.03-.82.43.04.55-.18.63-.51.6-2.32,1.19-4.63,1.81-6.95.18-.68.42-1.34.64-2.01.07.02.13.04.2.06.15.71.29,1.42.46,2.25.82-.77,1.38-1.67,2.55-1.96ZM65.93,73.2c-2.39-3.03-2.62-6.43-.47-7.57-.62,1.63-.57,3.22.03,4.78.72,1.9,2.3,2.97,4.04,2.57,1.12-.25,2.2-.72,3.24-1.22.53-.25.92-.77,1.5-1.28-.49-.11-.75-.15-1.01-.22-2.14-.55-3.63-1.78-4.15-4.01-.28-1.2.08-2.14,1.19-2.69,2.84-1.41,5.74-1.45,8.59-.02,1.2.6,1.56,1.66,1.17,2.96-.61,2.01-2.04,3.17-4,3.75-.29.09-.59.15-1.01.26.28.31.45.54.66.73,1.11.97,2.43,1.47,3.87,1.7,1.66.27,2.93-.35,3.75-1.75.93-1.58,1.29-3.28.65-5.09-.06-.17-.1-.34-.17-.58,2.21,1.44,1.89,4.85-.57,7.69.91-.47,1.85-.92,2.61-1.59,3.18-2.81,4.36-6.48,4.32-10.62,0-.59-.16-1.2-.32-1.78-.14-.5-.47-.61-.83-.16-.45.57-.93,1.13-1.28,1.76-.31.56-.66,1.21-.63,1.81.03.58.51,1.15.8,1.73-.68.13-1.26-.23-1.74-.82-.68-.85-1.74-1.19-2.78-.9.13.65.25,1.3.38,1.94-1.07-1.91-2.49-3.48-3.84-5.1-2.78-3.33-4.16-7.07-3.02-11.39.74-2.8.39-5.52-.19-8.26-.13-.63-.44-.95-1.07-.94-1.07.01-2.13.04-3.2.06-.45,0-.7.23-.79.69-.51,2.68-.94,5.33-.13,8.05.57,1.91.93,3.87.55,5.88-.43,2.25-1.55,4.15-2.94,5.93-.91,1.17-1.78,2.35-2.65,3.55-.36.5-.66,1.06-.99,1.59-.05-.36,0-.67.04-.97.05-.32.09-.64.14-.96-1.73-.02-1.84.02-3.02,1.19-.57.56-.94.69-1.56.55,1.19-1.27,1.27-1.96.34-3.38-.38-.59-.82-1.14-1.25-1.69-.15-.19-.37-.33-.56-.5-2.63,3.4,1.71,13.23,6.31,14.32ZM93.88,115.78c0-.81,0-1.41,0-2.01,0-3.1,0-6.21,0-9.31,0-1.68-1.13-2.88-2.7-2.9-1.57-.02-2.73,1.14-2.74,2.84-.02,7-.02,14.01,0,21.01,0,1.6,1.21,2.82,2.71,2.83,1.57,0,2.71-1.17,2.73-2.86.02-1.21,0-2.42,0-3.64,0-.25.03-.56.17-.75.41-.53.89-1,1.38-1.54.26.34.49.62.7.91,1.69,2.25,3.36,4.51,5.06,6.75.97,1.28,2.58,1.51,3.78.59,1.27-.97,1.45-2.43.44-3.76-1.36-1.79-2.74-3.58-4.1-5.37-.48-.63-.94-1.27-1.42-1.92,1.42-1.48,2.8-2.88,4.13-4.32,1.02-1.1,1.02-2.39.09-3.38-.94-1-2.43-1.09-3.55-.19-.41.33-.8.71-1.16,1.1-1.81,1.92-3.6,3.85-5.53,5.91ZM55.82,58.7c0,.65.01,1.26,0,1.86-.09,3.58.29,7.12,2.51,10.03,1.18,1.55,1.25,2.88.54,4.48-.02.04-.04.09-.05.14-.84,2.55-1.7,5.1-2.52,7.66-.14.45-.14.95-.14,1.43,0,.16.15.46.24.47.18,0,.44-.11.54-.25.26-.37.52-.77.66-1.2,1.14-3.47,2.25-6.96,3.39-10.43.19-.59.04-1-.35-1.44-1.41-1.58-2.38-3.41-2.89-5.47-.55-2.21-.65-4.45-.42-6.71.09-.88-.22-1.64-.58-2.37-.86.26-1.64.53-2.44.72-1.04.25-1.91-.14-2.45-1.01-1.55-2.49-3.09-4.98-4.51-7.54-2.67-4.8-2.75-9.85-1.19-15,.48-1.59,1.29-1.98,2.88-1.47,1.15.37,2.29.79,3.44,1.16,2.25.72,4.57.35,6.86.42,1.02.03,2.08.19,3.04.52,1.87.63,3.4,1.83,4.76,3.25.33.34.64.43,1.1.28,3.69-1.25,7.41-1.35,11.17-.32.26.07.65-.06.88-.23.92-.7,1.74-1.56,2.71-2.18,1.86-1.2,3.86-1.86,6.14-1.28,2.8.71,5.48.21,8.07-.97.77-.35,1.57-.64,2.38-.87.84-.23,1.47.08,1.88.85.18.34.3.72.38,1.09.39,1.85.74,3.71,1.13,5.56.38,1.85.24,3.65-.4,5.44-1.41,3.92-3.53,7.49-5.59,11.08-.49.86-1.57,1.23-2.54.94-.71-.21-1.4-.51-2.1-.76-.54.8-.7,1.67-.6,2.61.48,4.5-.18,8.71-3.28,12.26-.4.46-.38.91-.21,1.41,1.16,3.57,2.31,7.14,3.51,10.7.17.5.59.93.9,1.38.1-.03.2-.06.3-.09.06-.31.22-.63.18-.92-.13-.76-.31-1.51-.55-2.25-.93-2.91-1.88-5.8-2.84-8.7-.16-.47-.02-.8.23-1.2.81-1.34,1.7-2.67,2.29-4.1,1.03-2.51,1.18-5.18.96-7.87-.03-.42-.06-.84-.09-1.32.24.06.38.09.52.13,2.02.59,3.64.05,4.66-1.78,1.62-2.9,3.18-5.83,4.66-8.8,1.46-2.94,2.1-6.01,1.23-9.3-.47-1.78-.69-3.62-1.17-5.39-.54-2.03-2.25-2.89-4.23-2.25-.87.28-1.72.64-2.56,1.02-2.25,1-4.56,1.24-6.96.69-1.78-.41-3.55-.32-5.17.55-1.33.72-2.6,1.57-3.82,2.48-.57.42-.99.64-1.73.45-2.82-.71-5.7-.79-8.49.01-1.52.44-2.51.2-3.7-.84-2.17-1.91-4.74-3-7.74-2.7-.77.08-1.55.03-2.33.07-1.5.08-2.94-.22-4.35-.7-.92-.31-1.82-.67-2.75-.95-2.08-.62-3.69.19-4.33,2.25-1.58,5.1-1.74,10.2.69,15.09,1.3,2.62,2.88,5.1,4.38,7.62,1.74,2.93,2.62,3.3,5.9,2.57ZM76.19,128.37c5.81,0,10.05-4.36,10.05-10.34,0-5.52-4.36-9.92-9.85-9.94-5.76-.02-10.11,4.32-10.14,10.12-.03,5.69,4.33,10.15,9.95,10.16ZM35.41,118.5c.12,5.94,5.16,10.84,11.57,9.7,1.73-.31,3.32-.93,4.49-2.31.98-1.16.86-2.52-.23-3.58-.94-.9-2.2-.88-3.34.06-2.06,1.7-4.9,1.13-6.16-1.23-.61-1.13-.79-2.33-.67-3.59.39-4,3.74-5.64,7.06-3.47.33.22.74.39,1.13.43,1.08.13,2.03-.48,2.49-1.51.46-1.02.26-2.25-.7-2.95-.84-.62-1.8-1.18-2.79-1.5-6.65-2.11-13.1,2.91-12.85,9.95ZM59.53,46.69c.06-.34.13-.6.14-.86.05-1.16.02-2.33.14-3.48.11-.98.29-1.97.62-2.89.26-.71.8-1.31,1.22-1.97.08.04.15.09.23.13-.06.2-.11.41-.17.61-.33,1.17-.43,2.34-.02,3.5.08.23.44.58.59.54,1.54-.34,2.92-1.06,4.3-1.98-1.08-1.01-2.12-1.91-3.09-2.89-1.2-1.2-2.57-1.53-4.19-1.06-2.02.59-4.06,1.1-6.07,1.72-1.27.39-1.92.32-2.77-.7-.57-.69-1.01-1.47-1.51-2.22-.2-.31-.4-.62-.6-.94-.09,0-.17,0-.26.01-.17.43-.45.85-.49,1.3-.13,1.44-.3,2.9-.22,4.34.29,5.65,2.43,10.67,5.48,15.35.1.16.15.36.23.54.45-.46.65-.72.82-1.01,1.62-2.86,2.08-6.01,2.27-9.23.02-.36.2-.71.31-1.06.37.14.81.19,1.11.43.65.53,1.23,1.15,1.93,1.82ZM95.6,55.39c.23-.34.38-.53.5-.73,1.9-3.24,3.41-6.62,4.22-10.31.66-3.02.71-6.01-.07-9-.13-.48-.37-.93-.56-1.39-.09.01-.17.02-.26.03-.19.33-.36.67-.58.98-.63.88-1.24,1.78-1.95,2.59-.46.53-1.11.52-1.81.34-2.52-.68-5.05-1.34-7.61-1.88-.71-.15-1.64-.1-2.24.25-1.56.91-2.6,2.4-3.82,3.94,1.38.59,2.62,1.17,3.91,1.65,1.02.38,1.22.21,1.38-.86.03-.22.07-.44.04-.65-.14-1.02-.3-2.03-.46-3.1.15.13.34.27.49.43.92.99,1.49,2.16,1.69,3.48.17,1.17.2,2.37.32,3.55.06.57.19,1.14.25,1.49.62-.51,1.21-1.05,1.85-1.51.39-.28.87-.44,1.3-.66.13.45.33.9.37,1.36.26,2.95.96,5.78,2.2,8.47.23.49.53.94.87,1.53ZM59.64,110.51c-.31-.55-.52-1.19-.94-1.62-.73-.75-1.7-.95-2.68-.53-1.06.46-1.73,1.3-1.74,2.48-.03,4.87-.03,9.75,0,14.62,0,1.56,1.19,2.75,2.68,2.8,1.43.04,2.69-1.17,2.78-2.7.04-.63.02-1.26.02-1.89,0-2.06-.03-4.12.02-6.18.06-2.16,1.44-4.44,4.19-4.12,1.3.15,2.42-.96,2.56-2.28.18-1.69-1.17-2.99-3.02-2.9-1.76.09-2.91,1.16-3.87,2.32ZM113.03,106.13c-.04-1.24-.36-2.36-1.19-3.29-.75-.83-1.68-1.22-2.8-1.04-2.23.36-3.45,3.01-1.64,5.1,1.1,1.27,1.07,1.68.14,3.06-.39.58-.31,1.02.27,1.41.72.48,1.87.47,2.6-.08,1.73-1.29,2.55-3.05,2.61-5.16ZM84.99,49.01c-.16-.24-.21-.35-.29-.43-.8-.73-1.58-1.5-2.42-2.19-1.06-.87-1.97-.88-3.12-.13-.9.58-1.15,1.44-.69,2.3.49.92,1.48,1.31,2.39.86,1.09-.54,2.22-.63,3.39-.49.19.02.37.04.73.07ZM63.55,49.03c.03.1.06.21.1.31,1.61-.5,3.09-.04,4.6.4.75.22,1.33-.32,1.73-.94.39-.6.38-1.25-.02-1.84-.65-.96-2.31-1.36-3.23-.66-1.11.84-2.12,1.81-3.17,2.72ZM71.35,73.88c.59,1.54,1.88,2.28,3.66,2.19,1.35-.06,2.53-.95,2.84-2.07-1.2-1.04-2.69-.84-4.07-.88-.79-.02-1.59.48-2.43.76ZM65.93,53.45c0-.08,0-.16.01-.24-.33,0-.69-.09-.99.01-1.55.52-2.01,1.87-2.32,3.33-.16-.18-.26-.3-.4-.46.11,1.88,1.65,3.41,3.37,3.41,1.51,0,2.59-.98,2.7-2.53-.37.34-.68.67-1.03.93-1.37.99-2.98.55-3.35-.88-.4-1.57.47-3.12,2.02-3.58ZM82.86,53.35q1.62.7,1.98,1.45c.4.83.52,1.71.07,2.51-.23.4-.69.81-1.13.93-1.33.38-2.27-.4-3.16-1.44.1,1.52,1.02,2.47,2.36,2.58,1.68.14,3.24-1.08,3.68-2.88.04-.17.03-.35.04-.64-.19.21-.28.32-.29.33-.41-.77-.73-1.62-1.25-2.32-.63-.86-1.71-1.02-2.31-.52ZM54.95,56.08c2.7-.74,4.52-5.92,3.06-8.49q-.95,4.7-3.06,8.49ZM74.78,63.47c-1.02.19-2.02.36-3.01.56-.37.07-.72.22-.59.72.13.49.49.36.82.29,1.77-.39,3.54-.41,5.33-.1.21.04.56-.1.66-.27.24-.41-.14-.55-.44-.62-.91-.21-1.83-.38-2.77-.57ZM94.2,55.78c-1.89-2.63-3.04-5.42-3.31-8.69-.84,3.76.23,7.83,3.31,8.69ZM80.4,55.89c.46-1.4,1.1-2.41,2.28-2.95,1.25-.58,2.39-.05,3.59.48-.72-1.35-2.27-2.01-3.6-1.59-1.49.46-2.5,2.17-2.26,4.06ZM62.55,53.65c3.29-1.48,4.14-1.16,5.94,2.16.27-1.56-.62-3.21-2.03-3.77-1.37-.54-2.91.05-3.92,1.61ZM65.31,54.28c-.16-.02-.32-.04-.47-.06-.04.3-.09.6-.09.9,0,.02.31.04.47.07.03-.3.06-.61.1-.91ZM84.3,54.25c-.15-.04-.3-.07-.45-.11-.05.3-.11.6-.16.91.17,0,.47.05.48.01.08-.26.1-.54.14-.81Z"/>
      <path class="cls-2" d="M83.88,97.56c-1.17.29-1.72,1.19-2.55,1.96-.17-.83-.32-1.54-.46-2.25-.07-.02-.13-.04-.2-.06-.21.67-.46,1.33-.64,2.01-.61,2.31-1.21,4.63-1.81,6.95-.09.33-.2.56-.63.51-2.03-.19-4.01.02-6.03.82-.48-1.48-1.01-2.9-1.4-4.36-.37-1.4-.58-2.85-.91-4.26-.13-.57-.38-1.11-.58-1.67-.06.01-.12.03-.17.04-.12.72-.25,1.44-.38,2.22-.84-.69-1.62-1.32-2.4-1.96-.06.06-.13.12-.19.19.08.15.16.31.25.45,1.8,2.79,3.05,5.79,3.43,9.1.2,1.69.42,1.22-1.24,2.16-.75-1.44-1.86-2.45-3.52-2.72-1.59-.26-3,.29-4.39,1.03-.46-1.43-.87-2.82-1.34-4.18-.81-2.31-1.76-4.57-2.46-6.9-1.09-3.63.2-6.79,2.26-9.95.21.73.39,1.31.6,2.02.78-1.11,1.01-2.25,1.07-3.43.02-.46-.02-.92-.06-1.38-.3-2.93.96-5.47,1.99-8.11,2.09,1.94,3.27,2.62,4.54,2.63-.46-.72-.97-1.42-1.36-2.19-.39-.76-.66-1.59-.92-2.45,1.7.66,3.42.8,5.17.72.15,0,.38.2.46.36,1.73,3.43,7.25,3.7,9.26.09.12-.21.41-.49.6-.47,1.71.12,3.32-.26,5.11-.73-.32.81-.58,1.65-.97,2.43-.39.77-.9,1.48-1.39,2.25,1.85-.31,3.29-1.25,4.6-2.79.59,1.69,1.13,3.24,1.65,4.79.37,1.11.54,2.24.39,3.43-.16,1.26-.06,2.52.42,3.72.15.37.35.72.62,1.26.2-.81.35-1.41.53-2.19,1.88,2.99,3.3,5.92,2.39,9.42-.32,1.22-.78,2.39-1.16,3.59-.13.4-.36.48-.77.43-2.22-.27-4.21,1.32-4.43,3.54-.06.55-.28.91-.64,1.34-.73.88-1.26,1.93-1.83,2.94-.23.41-.36.88-.53,1.33-.95-.56-1.84-1.14-2.77-1.63-.92-.48-.95-.44-.74-1.5.58-2.93,1.66-5.66,3.34-8.14.05-.07.08-.16.18-.39ZM74.71,81c-.17-.15-.32-.27-.46-.4-2.77-2.59-7.31-1.7-8.85,1.76-1,2.25-.53,4.36.75,6.35,2.17,3.34,5.1,5.95,8.25,8.31.15.12.59.03.79-.12,2.44-1.81,4.73-3.8,6.62-6.19.93-1.18,1.78-2.5,2.38-3.88,1.09-2.53.11-5.38-2.13-6.84-2.25-1.47-5.17-1.09-7.35,1.01ZM62.67,91.09c-.54,2.23.89,4.88,2.64,5.02-.86-1.64-1.74-3.32-2.64-5.02ZM86.8,91c-.91,1.75-1.78,3.42-2.64,5.08,1.94-.48,3.02-2.49,2.64-5.08Z"/>
      <path class="cls-2" d="M65.93,73.2c-4.6-1.08-8.93-10.91-6.31-14.32.19.17.41.3.56.5.44.55.87,1.11,1.25,1.69.93,1.42.85,2.11-.34,3.38.62.14.99,0,1.56-.55,1.18-1.17,1.29-1.22,3.02-1.19-.05.33-.1.65-.14.96-.05.31-.09.62-.04.97.33-.53.63-1.08.99-1.59.87-1.2,1.74-2.39,2.65-3.55,1.38-1.78,2.51-3.68,2.94-5.93.38-2.01.01-3.98-.55-5.88-.81-2.72-.38-5.37.13-8.05.09-.45.34-.68.79-.69,1.07-.02,2.13-.05,3.2-.06.63,0,.94.32,1.07.94.58,2.74.93,5.46.19,8.26-1.14,4.33.23,8.07,3.02,11.39,1.35,1.62,2.77,3.18,3.84,5.1-.13-.65-.25-1.3-.38-1.94,1.04-.29,2.1.06,2.78.9.48.59,1.06.96,1.74.82-.29-.59-.77-1.15-.8-1.73-.03-.59.32-1.25.63-1.81.35-.63.83-1.19,1.28-1.76.36-.45.69-.34.83.16.16.58.31,1.18.32,1.78.04,4.13-1.14,7.8-4.32,10.62-.76.67-1.7,1.12-2.61,1.59,2.47-2.84,2.79-6.25.57-7.69.07.24.11.41.17.58.64,1.81.28,3.51-.65,5.09-.82,1.4-2.09,2.02-3.75,1.75-1.44-.24-2.76-.73-3.87-1.7-.21-.18-.38-.41-.66-.73.43-.11.72-.17,1.01-.26,1.96-.58,3.39-1.74,4-3.75.4-1.3.04-2.35-1.17-2.96-2.85-1.43-5.75-1.39-8.59.02-1.11.55-1.47,1.49-1.19,2.69.52,2.22,2.01,3.45,4.15,4.01.26.07.52.11,1.01.22-.58.51-.98,1.03-1.5,1.28-1.04.5-2.12.97-3.24,1.22-1.74.4-3.32-.67-4.04-2.57-.6-1.56-.65-3.15-.03-4.78-2.14,1.14-1.92,4.54.47,7.57Z"/>
      <path class="cls-2" d="M93.88,115.78c1.93-2.07,3.73-4,5.53-5.91.36-.39.75-.76,1.16-1.1,1.12-.91,2.61-.82,3.55.19.93.99.92,2.29-.09,3.38-1.33,1.44-2.71,2.84-4.13,4.32.48.65.94,1.29,1.42,1.92,1.36,1.79,2.74,3.58,4.1,5.37,1.01,1.33.84,2.79-.44,3.76-1.2.92-2.82.68-3.78-.59-1.7-2.24-3.37-4.5-5.06-6.75-.22-.29-.44-.57-.7-.91-.49.54-.97,1.01-1.38,1.54-.14.18-.17.49-.17.75-.02,1.21,0,2.42,0,3.64-.02,1.69-1.17,2.87-2.73,2.86-1.5,0-2.71-1.22-2.71-2.83-.01-7-.01-14.01,0-21.01,0-1.7,1.17-2.86,2.74-2.84,1.57.02,2.69,1.22,2.7,2.9,0,3.1,0,6.21,0,9.31,0,.6,0,1.2,0,2.01Z"/>
      <path class="cls-2" d="M55.82,58.7c-3.29.73-4.17.36-5.9-2.57-1.49-2.52-3.08-5-4.38-7.62-2.42-4.89-2.27-9.98-.69-15.09.64-2.07,2.26-2.87,4.33-2.25.93.28,1.83.63,2.75.95,1.41.48,2.85.78,4.35.7.77-.04,1.56,0,2.33-.07,3-.3,5.57.79,7.74,2.7,1.18,1.04,2.18,1.27,3.7.84,2.79-.8,5.67-.73,8.49-.01.74.19,1.17-.03,1.73-.45,1.22-.9,2.49-1.76,3.82-2.48,1.62-.87,3.38-.96,5.17-.55,2.4.55,4.71.32,6.96-.69.84-.37,1.69-.73,2.56-1.02,1.98-.65,3.69.22,4.23,2.25.48,1.77.7,3.62,1.17,5.39.87,3.29.23,6.36-1.23,9.3-1.48,2.97-3.04,5.9-4.66,8.8-1.02,1.83-2.64,2.37-4.66,1.78-.14-.04-.28-.07-.52-.13.03.48.06.9.09,1.32.22,2.69.07,5.36-.96,7.87-.59,1.44-1.48,2.76-2.29,4.1-.24.41-.38.73-.23,1.2.96,2.9,1.91,5.79,2.84,8.7.23.73.42,1.49.55,2.25.05.29-.11.61-.18.92-.1.03-.2.06-.3.09-.3-.46-.73-.88-.9-1.38-1.2-3.56-2.35-7.13-3.51-10.7-.16-.5-.19-.95.21-1.41,3.1-3.54,3.76-7.75,3.28-12.26-.1-.94.07-1.81.6-2.61.7.26,1.39.55,2.1.76.97.29,2.05-.09,2.54-.94,2.06-3.59,4.18-7.16,5.59-11.08.64-1.78.78-3.58.4-5.44-.38-1.85-.74-3.71-1.13-5.56-.08-.37-.2-.75-.38-1.09-.41-.78-1.04-1.09-1.88-.85-.81.23-1.61.52-2.38.87-2.59,1.18-5.27,1.68-8.07.97-2.28-.58-4.28.08-6.14,1.28-.97.63-1.79,1.48-2.71,2.18-.23.17-.62.3-.88.23-3.76-1.03-7.48-.92-11.17.32-.45.15-.77.07-1.1-.28-1.36-1.42-2.89-2.62-4.76-3.25-.97-.32-2.02-.49-3.04-.52-2.29-.07-4.61.3-6.86-.42-1.15-.37-2.29-.79-3.44-1.16-1.59-.51-2.4-.12-2.88,1.47-1.56,5.15-1.48,10.2,1.19,15,1.42,2.56,2.97,5.05,4.51,7.54.54.87,1.41,1.26,2.45,1.01.8-.19,1.57-.46,2.44-.72.37.73.67,1.49.58,2.37-.23,2.26-.13,4.5.42,6.71.52,2.06,1.48,3.89,2.89,5.47.39.44.54.86.35,1.44-1.14,3.47-2.24,6.96-3.39,10.43-.14.43-.4.83-.66,1.2-.1.15-.36.26-.54.25-.09,0-.25-.3-.24-.47,0-.48,0-.98.14-1.43.82-2.56,1.67-5.11,2.52-7.66.02-.05.03-.09.05-.14.71-1.6.65-2.93-.54-4.48-2.22-2.91-2.6-6.45-2.51-10.03.01-.6,0-1.21,0-1.86Z"/>
      <path class="cls-2" d="M76.19,128.37c-5.61,0-9.97-4.46-9.95-10.16.03-5.8,4.38-10.15,10.14-10.12,5.49.02,9.85,4.42,9.85,9.94,0,5.97-4.24,10.34-10.05,10.34ZM80.7,118.43c-.18-.97-.25-1.7-.45-2.39-.57-1.91-2.08-3.06-3.93-3.08-1.93-.02-3.46,1.09-4.05,3.03-.53,1.77-.51,3.55.34,5.23.74,1.46,1.98,2.23,3.62,2.26,1.64.04,2.89-.71,3.57-2.16.45-.96.64-2.05.9-2.89Z"/>
      <path class="cls-2" d="M35.41,118.5c-.24-7.04,6.2-12.05,12.85-9.95.99.31,1.95.88,2.79,1.5.96.71,1.15,1.93.7,2.95-.46,1.03-1.41,1.64-2.49,1.51-.39-.05-.8-.22-1.13-.43-3.32-2.16-6.67-.53-7.06,3.47-.12,1.25.07,2.46.67,3.59,1.27,2.36,4.1,2.93,6.16,1.23,1.14-.94,2.41-.97,3.34-.06,1.09,1.05,1.21,2.42.23,3.58-1.17,1.37-2.76,2-4.49,2.31-6.41,1.14-11.45-3.77-11.57-9.7Z"/>
      <path class="cls-2" d="M59.53,46.69c-.7-.67-1.28-1.29-1.93-1.82-.29-.24-.73-.29-1.11-.43-.11.35-.29.7-.31,1.06-.19,3.22-.65,6.36-2.27,9.23-.16.29-.37.56-.82,1.01-.08-.18-.13-.38-.23-.54-3.05-4.68-5.19-9.7-5.48-15.35-.07-1.44.09-2.9.22-4.34.04-.44.32-.86.49-1.3.09,0,.17,0,.26-.01.2.31.39.63.6.94.49.74.94,1.53,1.51,2.22.85,1.03,1.5,1.09,2.77.7,2.01-.62,4.05-1.13,6.07-1.72,1.62-.47,2.99-.14,4.19,1.06.97.97,2.01,1.88,3.09,2.89-1.38.92-2.75,1.64-4.3,1.98-.16.03-.51-.31-.59-.54-.41-1.16-.3-2.34.02-3.5.06-.2.11-.41.17-.61-.08-.04-.15-.09-.23-.13-.42.65-.96,1.26-1.22,1.97-.33.92-.51,1.91-.62,2.89-.12,1.15-.09,2.32-.14,3.48-.01.26-.08.51-.14.86Z"/>
      <path class="cls-2" d="M95.6,55.39c-.34-.59-.65-1.04-.87-1.53-1.24-2.69-1.94-5.52-2.2-8.47-.04-.46-.24-.91-.37-1.36-.44.21-.91.38-1.3.66-.65.46-1.24,1-1.85,1.51-.06-.35-.19-.91-.25-1.49-.12-1.18-.14-2.37-.32-3.55-.2-1.32-.77-2.5-1.69-3.48-.15-.16-.33-.29-.49-.43.16,1.06.32,2.08.46,3.1.03.21,0,.44-.04.65-.15,1.07-.36,1.24-1.38.86-1.28-.48-2.53-1.06-3.91-1.65,1.22-1.55,2.26-3.04,3.82-3.94.6-.35,1.53-.4,2.24-.25,2.55.54,5.08,1.21,7.61,1.88.7.19,1.35.2,1.81-.34.71-.81,1.32-1.72,1.95-2.59.22-.31.39-.65.58-.98.09-.01.17-.02.26-.03.19.46.43.91.56,1.39.78,2.99.73,5.98.07,9-.8,3.69-2.32,7.08-4.22,10.31-.12.2-.26.39-.5.73Z"/>
      <path class="cls-2" d="M59.64,110.51c.96-1.16,2.12-2.24,3.87-2.32,1.84-.09,3.2,1.22,3.02,2.9-.14,1.31-1.25,2.43-2.56,2.28-2.75-.32-4.14,1.96-4.19,4.12-.05,2.06-.02,4.12-.02,6.18,0,.63.01,1.26-.02,1.89-.09,1.54-1.34,2.75-2.78,2.7-1.49-.04-2.67-1.23-2.68-2.8-.02-4.87-.02-9.75,0-14.62,0-1.18.68-2.02,1.74-2.48.98-.43,1.95-.22,2.68.53.42.43.63,1.07.94,1.62Z"/>
      <path class="cls-2" d="M113.03,106.13c-.06,2.11-.88,3.87-2.61,5.16-.73.54-1.88.56-2.6.08-.58-.39-.67-.83-.27-1.41.93-1.38.96-1.79-.14-3.06-1.81-2.09-.59-4.74,1.64-5.1,1.12-.18,2.05.22,2.8,1.04.84.92,1.15,2.05,1.19,3.29Z"/>
      <path class="cls-2" d="M84.99,49.01c-.36-.03-.55-.05-.73-.07-1.17-.14-2.3-.04-3.39.49-.92.45-1.9.06-2.39-.86-.46-.87-.21-1.72.69-2.3,1.15-.75,2.06-.74,3.12.13.84.69,1.62,1.45,2.42,2.19.08.07.13.19.29.43Z"/>
      <path class="cls-2" d="M63.55,49.03c1.05-.91,2.06-1.89,3.17-2.72.93-.7,2.59-.3,3.23.66.4.6.41,1.24.02,1.84-.4.61-.98,1.16-1.73.94-1.51-.44-2.99-.9-4.6-.4-.03-.1-.06-.21-.1-.31Z"/>
      <path class="cls-2" d="M71.35,73.88c.85-.28,1.65-.78,2.43-.76,1.38.04,2.87-.16,4.07.88-.31,1.12-1.5,2.01-2.84,2.07-1.78.08-3.07-.66-3.66-2.19Z"/>
      <path class="cls-2" d="M65.93,53.45c-1.54.46-2.42,2.02-2.02,3.58.37,1.43,1.98,1.87,3.35.88.36-.26.66-.59,1.03-.93-.11,1.54-1.19,2.53-2.7,2.53-1.72,0-3.26-1.53-3.37-3.41.14.16.24.28.4.46.31-1.46.77-2.81,2.32-3.33.3-.1.66-.01.99-.01,0,.08,0,.16-.01.24Z"/>
      <path class="cls-2" d="M82.86,53.35c.6-.5,1.67-.34,2.31.52.52.7.85,1.55,1.25,2.32,0,0,.1-.12.29-.33-.02.29,0,.47-.04.64-.44,1.8-2,3.02-3.68,2.88-1.33-.11-2.26-1.06-2.36-2.58.89,1.04,1.83,1.82,3.16,1.44.44-.12.9-.53,1.13-.93.46-.81.33-1.68-.07-2.51q-.36-.75-1.98-1.45Z"/>
      <path class="cls-2" d="M54.95,56.08q2.11-3.79,3.06-8.49c1.46,2.58-.35,7.76-3.06,8.49Z"/>
      <path class="cls-2" d="M74.78,63.47c.93.19,1.85.36,2.77.57.3.07.68.21.44.62-.1.17-.45.31-.66.27-1.79-.31-3.56-.29-5.33.1-.33.07-.69.21-.82-.29-.13-.5.22-.65.59-.72.99-.2,1.99-.37,3.01-.56Z"/>
      <path class="cls-2" d="M94.2,55.78c-3.08-.87-4.15-4.93-3.31-8.69.27,3.27,1.42,6.06,3.31,8.69Z"/>
      <path class="cls-2" d="M80.4,55.89c-.24-1.9.78-3.6,2.26-4.06,1.33-.41,2.89.24,3.6,1.59-1.19-.53-2.33-1.06-3.59-.48-1.18.55-1.82,1.55-2.28,2.95Z"/>
      <path class="cls-2" d="M62.55,53.65c1.01-1.55,2.54-2.15,3.92-1.61,1.41.56,2.29,2.21,2.03,3.77-1.8-3.32-2.65-3.64-5.94-2.16Z"/>
      <path class="cls-2" d="M65.31,54.28c-.03.3-.06.61-.1.91-.16-.02-.47-.05-.47-.07,0-.3.06-.6.09-.9.16.02.32.04.47.06Z"/>
      <path class="cls-2" d="M84.3,54.25c-.04.27-.06.55-.14.81-.01.04-.31,0-.48-.01.05-.3.11-.6.16-.91.15.04.3.07.45.11Z"/>
      <path d="M74.71,81c2.18-2.1,5.1-2.48,7.35-1.01,2.24,1.46,3.22,4.31,2.13,6.84-.59,1.38-1.44,2.69-2.38,3.88-1.88,2.39-4.18,4.38-6.62,6.19-.2.14-.64.23-.79.12-3.16-2.36-6.08-4.97-8.25-8.31-1.29-1.98-1.75-4.1-.75-6.35,1.54-3.46,6.08-4.35,8.85-1.76.14.13.29.25.46.4ZM74.7,83.8c-.34-.56-.57-.98-.84-1.37-.99-1.4-2.61-2.05-4.19-1.69-1.74.39-2.9,1.59-3.2,3.35-.28,1.65.4,3.04,1.3,4.33,1.78,2.55,4.09,4.58,6.46,6.54.34.28.61.28.94-.03,1.51-1.4,3.09-2.72,4.54-4.18,1.24-1.25,2.36-2.63,3.01-4.32.83-2.17.03-4.43-1.94-5.4-1.91-.94-4.22-.22-5.43,1.69-.2.32-.4.64-.67,1.07Z"/>
      <path d="M62.67,91.09c.89,1.7,1.78,3.38,2.64,5.02-1.74-.14-3.18-2.79-2.64-5.02Z"/>
      <path d="M86.8,91c.37,2.58-.71,4.59-2.64,5.08.86-1.66,1.73-3.33,2.64-5.08Z"/>
      <path d="M80.7,118.43c-.25.84-.44,1.93-.9,2.89-.69,1.45-1.93,2.2-3.57,2.16-1.64-.04-2.88-.81-3.62-2.26-.85-1.68-.88-3.46-.34-5.23.58-1.93,2.12-3.04,4.05-3.03,1.85.02,3.36,1.17,3.93,3.08.21.69.27,1.42.45,2.39Z"/>
      <path class="cls-2" d="M74.7,83.8c.27-.43.46-.75.67-1.07,1.21-1.92,3.52-2.64,5.43-1.69,1.96.97,2.77,3.23,1.94,5.4-.65,1.69-1.77,3.07-3.01,4.32-1.45,1.46-3.03,2.78-4.54,4.18-.33.3-.6.31-.94.03-2.38-1.96-4.68-4-6.46-6.54-.91-1.3-1.59-2.68-1.3-4.33.3-1.77,1.46-2.96,3.2-3.35,1.58-.36,3.19.29,4.19,1.69.28.39.5.82.84,1.37Z"/>
    </g>
    <text class="cls-1" transform="translate(161 93.79)"><tspan x="0" y="0">C</tspan><tspan class="cls-3" x="38.12" y="0">r</tspan><tspan x="60.06" y="0">ok’</tspan></text>
  </g>
</svg>